# xmcd
#
# Track frame offsets: 
#        150
#        24705
#        33377
#        48973
#        77763
#        87327
#        102498
#        115656
#        132604
#        150708
#        168924
#        202862
#        218911
#        240547
#        262475
#        291314
#        314622
#
# Disc length: 4378 seconds
#
# Revision: 0
# Processed by: cddbd v1.5.2PL0 Copyright (c) Steve Scherf et al.
# Submitted via: ExactAudioCopy v0.95b3
#
DISCID=f7111811
DTITLE=Heart  - Dreamboat Annie Live Japanese SHM-CD (GQCP 59093)  FLA
DTITLE=C
DYEAR=1900
DGENRE=
TTITLE0=Magic Man
TTITLE1=Dreamboat Annie (Fantasy Child)
TTITLE2=Crazy On You
TTITLE3=Soul Of The Sea
TTITLE4=Dreamboat Annie
TTITLE5=White Lightning and Wine
TTITLE6=(Love Me Like Music) I'll Be Your Song
TTITLE7=Sing Child
TTITLE8=How Deep It Goes
TTITLE9=Dreamboat Annie (Reprise)
TTITLE10=Mistral Wind
TTITLE11=Goodbye Blue Sky
TTITLE12=Black Dog
TTITLE13=Misty Mountain Hop
TTITLE14=Love Reign O'er Me
TTITLE15=Love Alive (LA County Fair 2007)
TTITLE16=Isolation (LA County Fair 2007)
EXTD=
EXTT0=
EXTT1=
EXTT2=
EXTT3=
EXTT4=
EXTT5=
EXTT6=
EXTT7=
EXTT8=
EXTT9=
EXTT10=
EXTT11=
EXTT12=
EXTT13=
EXTT14=
EXTT15=
EXTT16=
PLAYORDER=
